<svg width="33" height="33" viewBox="0 0 33 33" fill="none" xmlns="http://www.w3.org/2000/svg">
<ellipse opacity="0.05" cx="16.6049" cy="16.2593" rx="16.0131" ry="16" fill="#1D92FF"/>
<path d="M14.7617 14.6095V12.5173C14.7617 11.7453 15.4895 11.1188 16.3862 11.1188C17.2829 11.1188 18.0107 11.7453 18.0107 12.5173V14.6095C18.797 14.1564 19.3103 13.39 19.3103 12.5173C19.3103 11.1244 18.0042 10 16.3862 10C14.7682 10 13.4621 11.1244 13.4621 12.5173C13.4621 13.39 13.9754 14.1564 14.7617 14.6095ZM21.1558 17.1996L18.2056 15.9353C18.0952 15.8961 17.9782 15.8738 17.8547 15.8738H17.3609V12.5173C17.3609 12.053 16.9255 11.6782 16.3862 11.6782C15.8468 11.6782 15.4115 12.053 15.4115 12.5173V18.5254L13.1826 18.1226C13.1307 18.117 13.0852 18.1058 13.0267 18.1058C12.8253 18.1058 12.6433 18.1785 12.5133 18.2904L12 18.7379L15.21 21.5014C15.3855 21.6524 15.6324 21.7475 15.8988 21.7475H20.311C20.7984 21.7475 21.1753 21.4399 21.2467 21.0315L21.7341 18.0834C21.7406 18.0443 21.7471 18.0051 21.7471 17.9715C21.7471 17.6247 21.5002 17.3226 21.1558 17.1996Z" fill="#1D92FF"/>
</svg>
