<svg width="17" height="17" viewBox="0 0 17 17" fill="none" xmlns="http://www.w3.org/2000/svg">
<g clip-path="url(#clip0_14854_20)">
<path d="M8.5 0.100586C4.08888 0.100586 0.5 3.68946 0.5 8.10059C0.5 12.5117 4.08888 16.1006 8.5 16.1006C12.9111 16.1006 16.5 12.5117 16.5 8.10059C16.5 3.68946 12.9111 0.100586 8.5 0.100586ZM8.5 15.1006C4.64013 15.1006 1.5 11.9605 1.5 8.10059C1.5 4.24072 4.64013 1.10059 8.5 1.10059C12.3599 1.10059 15.5 4.24072 15.5 8.10059C15.5 11.9605 12.3599 15.1006 8.5 15.1006Z" fill="black"/>
<path d="M9 3.10059H8V8.3076L11.1465 11.4541L11.8535 10.7471L9 7.89354V3.10059Z" fill="black"/>
</g>
<defs>
<clipPath id="clip0_14854_20">
<rect width="16" height="16" fill="white" transform="translate(0.5 0.100586)"/>
</clipPath>
</defs>
</svg>
