<svg width="30" height="31" viewBox="0 0 30 31" fill="none" xmlns="http://www.w3.org/2000/svg">
<path d="M30 15.791C30 24.0753 23.2843 30.791 15 30.791C6.71573 30.791 0 24.0753 0 15.791C0 7.50674 6.71573 0.791016 15 0.791016C23.2843 0.791016 30 7.50674 30 15.791Z" fill="#050C12"/>
<path d="M12.5135 12.1564V13.6896H11V15.5642H12.5135V21.1357H15.6201V15.5648H17.7054C17.7054 15.5648 17.9008 14.666 17.9955 13.6829H15.6328V12.4008C15.6328 12.2094 15.971 11.9516 16.3062 11.9516H18V10H15.6975C12.4361 10 12.5135 11.8763 12.5135 12.1564Z" fill="white"/>
</svg>
