<svg width="30" height="31" viewBox="0 0 30 31" fill="none" xmlns="http://www.w3.org/2000/svg">
<path d="M30 15.791C30 24.0753 23.2843 30.791 15 30.791C6.71573 30.791 0 24.0753 0 15.791C0 7.50674 6.71573 0.791016 15 0.791016C23.2843 0.791016 30 7.50674 30 15.791Z" fill="#050C12"/>
<path d="M17.5799 13.9883C18.6687 13.9883 19.7128 14.4085 20.4827 15.1564C21.2526 15.9043 21.6851 16.9187 21.6851 17.9764V22.6292H18.9483V17.9764C18.9483 17.6238 18.8041 17.2857 18.5475 17.0364C18.2909 16.7871 17.9428 16.647 17.5799 16.647C17.2169 16.647 16.8689 16.7871 16.6123 17.0364C16.3556 17.2857 16.2115 17.6238 16.2115 17.9764V22.6292H13.4746V17.9764C13.4746 16.9187 13.9071 15.9043 14.677 15.1564C15.4469 14.4085 16.4911 13.9883 17.5799 13.9883Z" fill="white"/>
<path d="M10.7368 14.6533H8V22.6295H10.7368V14.6533Z" fill="white"/>
<path d="M9.36842 12.7255C10.1242 12.7255 10.7368 12.1154 10.7368 11.3627C10.7368 10.6101 10.1242 10 9.36842 10C8.61266 10 8 10.6101 8 11.3627C8 12.1154 8.61266 12.7255 9.36842 12.7255Z" fill="white"/>
</svg>
