<svg width="17" height="17" viewBox="0 0 17 17" fill="none" xmlns="http://www.w3.org/2000/svg">
<g clip-path="url(#clip0_14854_25)">
<path d="M8.5 0.100586C5.39838 0.100586 2.875 2.62396 2.875 5.72559C2.875 6.77352 3.16528 7.79621 3.71466 8.68346L8.17981 15.879C8.26534 16.0168 8.41603 16.1006 8.57809 16.1006C8.57934 16.1006 8.58056 16.1006 8.58181 16.1006C8.74528 16.0993 8.89628 16.013 8.98025 15.8727L13.3316 8.60746C13.8507 7.73896 14.125 6.74243 14.125 5.72559C14.125 2.62396 11.6016 0.100586 8.5 0.100586ZM12.5271 8.12615L8.571 14.7314L4.51147 8.18952C4.05419 7.45102 3.80625 6.59902 3.80625 5.72559C3.80625 3.1409 5.91531 1.03184 8.5 1.03184C11.0847 1.03184 13.1906 3.1409 13.1906 5.72559C13.1906 6.57312 12.959 7.40334 12.5271 8.12615Z" fill="black"/>
<path d="M8.5 2.91309C6.94919 2.91309 5.6875 4.17477 5.6875 5.72559C5.6875 7.26649 6.92866 8.53809 8.5 8.53809C10.0907 8.53809 11.3125 7.24955 11.3125 5.72559C11.3125 4.17477 10.0508 2.91309 8.5 2.91309ZM8.5 7.60684C7.46072 7.60684 6.61875 6.76205 6.61875 5.72559C6.61875 4.69171 7.46613 3.84434 8.5 3.84434C9.53387 3.84434 10.3781 4.69171 10.3781 5.72559C10.3781 6.74693 9.55575 7.60684 8.5 7.60684Z" fill="black"/>
</g>
<defs>
<clipPath id="clip0_14854_25">
<rect width="16" height="16" fill="white" transform="translate(0.5 0.100586)"/>
</clipPath>
</defs>
</svg>
