<svg width="30" height="31" viewBox="0 0 30 31" fill="none" xmlns="http://www.w3.org/2000/svg">
<path d="M30 15.791C30 24.0753 23.2843 30.791 15 30.791C6.71573 30.791 0 24.0753 0 15.791C0 7.50674 6.71573 0.791016 15 0.791016C23.2843 0.791016 30 7.50674 30 15.791Z" fill="#050C12"/>
<path d="M22 11.0058C21.3906 11.3954 20.7159 11.6934 20.0018 11.8883C19.6186 11.4889 19.1092 11.2058 18.5427 11.0773C17.9761 10.9488 17.3797 10.9811 16.8341 11.1699C16.2884 11.3586 15.8199 11.6947 15.4919 12.1327C15.1639 12.5706 14.9922 13.0893 15 13.6186V14.1954C13.8817 14.2217 12.7735 13.9969 11.7743 13.541C10.775 13.0851 9.91566 12.4124 9.27273 11.5826C9.27273 11.5826 6.72727 16.7736 12.4545 19.0808C11.144 19.8871 9.58274 20.2914 8 20.2343C13.7273 23.1182 20.7273 20.2343 20.7273 13.6013C20.7267 13.4407 20.7096 13.2804 20.6764 13.1226C21.3258 12.5421 21.7842 11.8091 22 11.0058Z" fill="white"/>
</svg>
