<svg width="90" height="89" viewBox="0 0 90 89" fill="none" xmlns="http://www.w3.org/2000/svg">
<path opacity="0.05" d="M47.5762 1.20117L87.8719 46.9194L42.2204 87.1563L1.92469 41.4381L47.5762 1.20117Z" fill="#1D92FF"/>
<path opacity="0.3" d="M47.6195 1.1707L87.9816 46.9643L42.188 87.3264L1.82589 41.5328L47.6195 1.1707Z" stroke="#002547" stroke-width="0.3"/>
<circle opacity="0.3" cx="47.5" cy="1.55078" r="1.5" fill="#002547"/>
<circle opacity="0.3" cx="42.3008" cy="87.251" r="1" fill="#002547"/>
<circle opacity="0.3" cx="1.5" cy="41.5508" r="1.5" fill="#002547"/>
<circle opacity="0.3" cx="88.5" cy="46.5508" r="1.5" fill="#002547"/>
<path d="M44.5 38.5909C41.7877 38.5909 39.5909 40.7877 39.5909 43.5C39.5909 46.2123 41.7877 48.4091 44.5 48.4091C47.2123 48.4091 49.4091 46.2123 49.4091 43.5C49.4091 40.7877 47.2123 38.5909 44.5 38.5909ZM55.4718 42.2727C54.9073 37.155 50.845 33.0927 45.7273 32.5282V30H43.2727V32.5282C38.155 33.0927 34.0927 37.155 33.5282 42.2727H31V44.7273H33.5282C34.0927 49.845 38.155 53.9073 43.2727 54.4718V57H45.7273V54.4718C50.845 53.9073 54.9073 49.845 55.4718 44.7273H58V42.2727H55.4718V42.2727ZM44.5 52.0909C39.7505 52.0909 35.9091 48.2495 35.9091 43.5C35.9091 38.7505 39.7505 34.9091 44.5 34.9091C49.2495 34.9091 53.0909 38.7505 53.0909 43.5C53.0909 48.2495 49.2495 52.0909 44.5 52.0909Z" fill="#002547"/>
</svg>
