<svg width="90" height="89" viewBox="0 0 90 89" fill="none" xmlns="http://www.w3.org/2000/svg">
<path opacity="0.05" d="M47.5723 1.17383L87.9486 46.9836L42.2855 87.2307L1.90916 41.421L47.5723 1.17383Z" fill="#1D92FF"/>
<path opacity="0.3" d="M47.6195 1.16874L87.9816 46.9623L42.188 87.3244L1.82589 41.5309L47.6195 1.16874Z" stroke="#002547" stroke-width="0.3"/>
<circle opacity="0.3" cx="47.5" cy="1.54883" r="1.5" fill="#002547"/>
<circle opacity="0.3" cx="42.3008" cy="87.249" r="1" fill="#002547"/>
<circle opacity="0.3" cx="1.5" cy="41.5488" r="1.5" fill="#002547"/>
<circle opacity="0.3" cx="88.5" cy="46.5488" r="1.5" fill="#002547"/>
<path d="M61 38.5C61 39.875 59.7727 41 58.2727 41C58.0273 41 57.7955 40.975 57.5773 40.9125L52.7227 45.35C52.7909 45.55 52.8182 45.775 52.8182 46C52.8182 47.375 51.5909 48.5 50.0909 48.5C48.5909 48.5 47.3636 47.375 47.3636 46C47.3636 45.775 47.3909 45.55 47.4591 45.35L43.9818 42.1625C43.7636 42.225 43.5182 42.25 43.2727 42.25C43.0273 42.25 42.7818 42.225 42.5636 42.1625L36.3591 47.8625C36.4273 48.0625 36.4545 48.275 36.4545 48.5C36.4545 49.875 35.2273 51 33.7273 51C32.2273 51 31 49.875 31 48.5C31 47.125 32.2273 46 33.7273 46C33.9727 46 34.2045 46.025 34.4227 46.0875L40.6409 40.4C40.5727 40.2 40.5455 39.975 40.5455 39.75C40.5455 38.375 41.7727 37.25 43.2727 37.25C44.7727 37.25 46 38.375 46 39.75C46 39.975 45.9727 40.2 45.9045 40.4L49.3818 43.5875C49.6 43.525 49.8455 43.5 50.0909 43.5C50.3364 43.5 50.5818 43.525 50.8 43.5875L55.6409 39.1375C55.5727 38.9375 55.5455 38.725 55.5455 38.5C55.5455 37.125 56.7727 36 58.2727 36C59.7727 36 61 37.125 61 38.5Z" fill="#002547"/>
</svg>
