<svg width="90" height="89" viewBox="0 0 90 89" fill="none" xmlns="http://www.w3.org/2000/svg">
<path opacity="0.05" d="M47.5957 1.22559L87.8941 46.9469L42.0914 87.3171L1.79297 41.5958L47.5957 1.22559Z" fill="#1D92FF"/>
<path opacity="0.3" d="M47.6195 1.16874L87.9816 46.9623L42.188 87.3244L1.82589 41.5309L47.6195 1.16874Z" stroke="#002547" stroke-width="0.3"/>
<circle opacity="0.3" cx="47.5" cy="1.54883" r="1.5" fill="#002547"/>
<circle opacity="0.3" cx="42.3008" cy="87.249" r="1" fill="#002547"/>
<circle opacity="0.3" cx="1.5" cy="41.5488" r="1.5" fill="#002547"/>
<circle opacity="0.3" cx="88.5" cy="46.5488" r="1.5" fill="#002547"/>
<path d="M58 40.766C58 36.4725 54.1205 33 49.3237 33C44.527 33 40.6475 36.4725 40.6475 40.766C40.6475 44.6157 43.7709 47.7998 47.8736 48.41V52.7811H37.9579V49.4528H39.1973V45.0151C39.1973 44.4049 38.6396 43.9057 37.9579 43.9057H34.2395C33.5578 43.9057 33 44.4049 33 45.0151V49.4528H34.2395V55H54.0709V52.7811H50.3525V48.4766C54.6534 48.0217 58 44.7489 58 40.766V40.766ZM36.0987 42.7963C37.1274 42.7963 37.9579 42.053 37.9579 41.1321C37.9579 40.2113 37.1274 39.468 36.0987 39.468C35.0699 39.468 34.2395 40.2113 34.2395 41.1321C34.2395 42.053 35.0699 42.7963 36.0987 42.7963Z" fill="#002547"/>
</svg>
