<svg width="90" height="89" viewBox="0 0 90 89" fill="none" xmlns="http://www.w3.org/2000/svg">
<path opacity="0.05" d="M47.625 1.27148L87.8493 46.9087L42.0973 87.2342L1.87296 41.597L47.625 1.27148Z" fill="#1D92FF"/>
<path opacity="0.3" d="M47.6195 1.16874L87.9816 46.9623L42.188 87.3244L1.82589 41.5309L47.6195 1.16874Z" stroke="#002547" stroke-width="0.3"/>
<circle opacity="0.3" cx="47.5" cy="1.54883" r="1.5" fill="#002547"/>
<circle opacity="0.3" cx="42.3008" cy="87.249" r="1" fill="#002547"/>
<circle opacity="0.3" cx="1.5" cy="41.5488" r="1.5" fill="#002547"/>
<circle opacity="0.3" cx="88.5" cy="46.5488" r="1.5" fill="#002547"/>
<path d="M57 37.4196L55.308 35.6427L51.888 39.6879C49.416 36.7643 45.996 35 42.132 35C38.664 35 35.484 36.4618 33 38.7806L34.704 40.5701C36.744 38.6924 39.324 37.5204 42.132 37.5204C45.42 37.5204 48.24 39.1082 50.256 41.6034L46.8 45.6864L42 40.6457L33 50.1097L34.8 52L42 44.4262L46.8 49.467L51.66 43.7331C52.56 45.4344 53.16 47.3877 53.388 49.467H55.8C55.536 46.5686 54.66 43.9348 53.352 41.7294L57 37.4196Z" fill="#002547"/>
</svg>
