<svg width="90" height="89" viewBox="0 0 90 89" fill="none" xmlns="http://www.w3.org/2000/svg">
<path opacity="0.05" d="M47.3652 1.37695L87.6563 47.0899L42.0918 87.2501L1.80072 41.5372L47.3652 1.37695Z" fill="#1D92FF"/>
<path opacity="0.3" d="M47.6195 1.16874L87.9816 46.9623L42.188 87.3244L1.82589 41.5309L47.6195 1.16874Z" stroke="#002547" stroke-width="0.3"/>
<circle opacity="0.3" cx="47.5" cy="1.54883" r="1.5" fill="#002547"/>
<circle opacity="0.3" cx="42.3008" cy="87.249" r="1" fill="#002547"/>
<circle opacity="0.3" cx="1.5" cy="41.5488" r="1.5" fill="#002547"/>
<circle opacity="0.3" cx="88.5" cy="46.5488" r="1.5" fill="#002547"/>
<path d="M56.9965 53.7273H42.8575V56H56.9965V53.7273ZM51.9948 39.0341L48.6604 35.8216L32 51.892L35.3321 55.1057L51.9948 39.0341ZM43.6623 31L36.9969 37.4273L40.3314 40.6432L46.9932 34.2114L43.6623 31ZM53.6679 40.642L47.0026 47.0705L50.3347 50.2841L57 43.8557L53.6679 40.642Z" fill="#002547"/>
</svg>
