<svg width="90" height="89" viewBox="0 0 90 89" fill="none" xmlns="http://www.w3.org/2000/svg">
<path opacity="0.05" d="M47.5605 1.2002L87.9272 46.9989L42.2131 87.2909L1.84652 41.4922L47.5605 1.2002Z" fill="#1D92FF"/>
<path opacity="0.3" d="M47.6195 1.1707L87.9816 46.9643L42.188 87.3264L1.82589 41.5328L47.6195 1.1707Z" stroke="#002547" stroke-width="0.3"/>
<circle opacity="0.3" cx="47.5" cy="1.55078" r="1.5" fill="#002547"/>
<circle opacity="0.3" cx="42.3008" cy="87.251" r="1" fill="#002547"/>
<circle opacity="0.3" cx="1.5" cy="41.5508" r="1.5" fill="#002547"/>
<circle opacity="0.3" cx="88.5" cy="46.5508" r="1.5" fill="#002547"/>
<path d="M44.5 37.1102C40.1023 37.1102 36.5455 40.3265 36.5455 44.3031H38.8182C38.8182 41.4671 41.3636 39.1653 44.5 39.1653C47.6364 39.1653 50.1818 41.4671 50.1818 44.3031H52.4545C52.4545 40.3265 48.8977 37.1102 44.5 37.1102ZM45.6364 46.6562C46.6364 46.2555 47.3409 45.3615 47.3409 44.3031C47.3409 42.8851 46.0682 41.7342 44.5 41.7342C42.9318 41.7342 41.6591 42.8851 41.6591 44.3031C41.6591 45.3512 42.3636 46.2555 43.3636 46.6562V50.0472L39.4886 53.5511L41.0909 55L44.5 51.9173L47.9091 55L49.5114 53.5511L45.6364 50.0472V46.6562ZM44.5 33C37.6023 33 32 38.0659 32 44.3031H34.2727C34.2727 39.1962 38.8523 35.0551 44.5 35.0551C50.1477 35.0551 54.7273 39.1962 54.7273 44.3031H57C57 38.0659 51.3977 33 44.5 33Z" fill="#002547"/>
</svg>
